PathFileType	4	(X/Y/Z)	C:/Users/opensim2020/Desktop/walking_exp_matlab/subject06_walking15_straight_02.trc	
DataRate	CameraRate	NumFrames	NumMarkers	Units	OrigDataRate	OrigDataStartFrame	OrigNumFrames	
100.00	100.00	4	47	mm	100.00	1682	218	
Frame#	Time	LFHD			RFHD			LBHD			RBHD			C7			T10			CLAV			STRN			RBAK			LSHO			LUPA			LELB			LFRM			LWRA			LWRB			LFIN			RSHO			RUPA			RELB			RFRM			RWRA			RWRB			RFIN			LASI			RASI			LPSI			RPSI			LTHI			LKNE			LTIB			LANK			LHEE			LTOE			RTHI			RKNE			RTIB			RANK			RHEE			RTOE			*39			*40			*41			*42			*43			*44			*45			*46			
		X1	Y1	Z1	X2	Y2	Z2	X3	Y3	Z3	X4	Y4	Z4	X5	Y5	Z5	X6	Y6	Z6	X7	Y7	Z7	X8	Y8	Z8	X9	Y9	Z9	X10	Y10	Z10	X11	Y11	Z11	X12	Y12	Z12	X13	Y13	Z13	X14	Y14	Z14	X15	Y15	Z15	X16	Y16	Z16	X17	Y17	Z17	X18	Y18	Z18	X19	Y19	Z19	X20	Y20	Z20	X21	Y21	Z21	X22	Y22	Z22	X23	Y23	Z23	X24	Y24	Z24	X25	Y25	Z25	X26	Y26	Z26	X27	Y27	Z27	X28	Y28	Z28	X29	Y29	Z29	X30	Y30	Z30	X31	Y31	Z31	X32	Y32	Z32	X33	Y33	Z33	X34	Y34	Z34	X35	Y35	Z35	X36	Y36	Z36	X37	Y37	Z37	X38	Y38	Z38	X39	Y39	Z39	X40	Y40	Z40	X41	Y41	Z41	X42	Y42	Z42	X43	Y43	Z43	X44	Y44	Z44	X45	Y45	Z45	X46	Y46	Z46	X47	Y47	Z47	

191	1.900	-905.58398	-593.41705	1648.29663	-1036.91223	-605.54138	1645.66919	-921.22809	-460.54938	1594.22571	-1050.30212	-474.76831	1596.78662	-982.10980	-466.50613	1436.10535	-1000.47327	-449.89920	1104.87122	-982.31995	-580.62262	1364.64856	-986.62201	-629.92450	1193.56189	-1068.42102	-402.79004	1265.42102	-820.58093	-518.47131	1387.29321	-757.25995	-483.05304	1187.47900	-751.92578	-454.19131	1078.35376	-728.94501	-444.66293	929.08081	-761.69116	-485.46750	803.46643	-735.61945	-420.40228	811.95386	-730.25885	-440.59604	723.64117	-1142.84167	-533.93488	1401.73157	-1240.93372	-507.23422	1207.36865	-1256.11267	-530.51233	1089.19226	-1264.84961	-593.90906	989.24048	-1214.73413	-707.76843	901.25708	-1257.73743	-665.19617	873.10400	-1251.59290	-734.42188	827.15533	-903.30719	-643.98193	963.31409	-1118.96265	-625.41241	958.91425	-916.54187	-483.90485	976.59131	-1083.68323	-477.44312	974.50592	-837.38513	-635.61426	646.50598	-866.63495	-670.66565	488.52173	-881.23273	-672.58484	230.16963	-930.44019	-688.53839	61.88548	-978.67566	-651.73853	48.85968	-931.05695	-833.90289	37.01699	-1168.84204	-559.88129	613.79657	-1154.22144	-555.42914	485.94159	-1138.28125	-364.06335	300.78339	-1092.18665	-229.61867	173.52315	-1046.78955	-190.25752	188.72505	-1074.18176	-298.25079	36.02596	-971.38153	-499.22699	1690.76123																					 
192	1.910	-904.03748	-603.01904	1648.99414	-1035.43835	-615.22998	1646.71936	-919.92932	-470.11920	1594.96594	-1049.06152	-484.37204	1598.05762	-981.35645	-476.58600	1436.05347	-999.22430	-460.46622	1105.72864	-981.36462	-590.69037	1365.85168	-985.82666	-640.53711	1194.85352	-1067.42798	-412.89758	1266.01868	-819.71136	-528.76233	1388.38525	-755.97809	-495.04431	1188.34949	-750.61218	-467.15005	1078.94922	-727.65466	-460.23575	929.39758	-761.12140	-502.76883	804.56445	-734.44806	-437.70660	811.84009	-729.70093	-459.56433	723.89148	-1141.72083	-543.43085	1402.89600	-1239.98975	-517.38806	1208.58887	-1254.53992	-539.55920	1090.02368	-1263.78381	-601.36810	988.82593	-1213.92969	-713.67633	898.11273	-1257.31226	-670.60107	871.30273	-1251.11877	-738.74487	823.55591	-902.02124	-654.70483	964.31891	-1117.68420	-635.68268	959.70984	-915.34827	-494.70227	977.80286	-1082.46338	-487.85358	975.05939	-836.45258	-643.68433	646.96375	-865.72968	-676.11053	488.20181	-881.54456	-674.34100	229.95448	-930.94971	-689.05481	61.91874	-979.13068	-652.10144	49.07975	-931.27435	-834.48352	36.42660	-1169.35596	-575.09857	613.92053	-1155.83179	-573.93323	486.00256	-1139.84460	-381.62643	305.67966	-1093.07288	-243.84784	182.59599	-1047.78943	-205.70168	200.25850	-1074.99487	-304.14569	40.10493	-969.73743	-508.86401	1691.68005																					 
193	1.920	-902.53802	-612.48724	1649.74243	-1033.95581	-624.73895	1647.85486	-918.62042	-479.68042	1595.72217	-1047.71240	-493.97958	1599.05688	-980.08044	-486.12448	1437.10852	-998.09375	-471.05658	1106.17517	-980.53577	-600.47949	1366.86877	-984.97162	-650.83447	1195.97900	-1066.48132	-422.73364	1266.62646	-818.70331	-538.88031	1389.37158	-754.67377	-507.08862	1189.10486	-749.06812	-480.44275	1079.36499	-726.35181	-475.90436	929.57654	-760.47137	-520.61194	805.63428	-733.55127	-455.42502	811.70703	-729.07404	-479.11789	724.02539	-1140.76624	-552.86725	1403.73645	-1238.87659	-526.69244	1209.39893	-1253.26819	-548.39410	1090.50513	-1262.63770	-608.75916	988.20886	-1213.19763	-719.32678	894.81396	-1256.92993	-675.75269	869.23688	-1250.66467	-742.89288	819.82733	-901.03931	-665.18103	965.16132	-1116.77332	-645.94403	960.69647	-914.03998	-505.31509	978.75409	-1081.20911	-497.87509	975.46930	-835.68335	-650.91266	647.21240	-864.72614	-680.71271	487.83029	-881.62671	-675.72095	229.88464	-931.33441	-689.48621	61.97810	-979.43555	-652.32550	49.18814	-931.42206	-834.93671	36.00848	-1169.67786	-590.17639	614.12921	-1156.89270	-592.75830	486.28708	-1140.82800	-399.56409	309.91824	-1094.08301	-259.39282	191.26216	-1048.81262	-222.35278	211.01222	-1076.38586	-311.49493	44.41465	-968.21582	-518.34564	1692.53430																					 
194	1.930	-901.14679	-621.89966	1650.60779	-1032.53918	-634.26923	1649.12415	-917.45227	-489.07678	1596.38147	-1046.56433	-503.61084	1600.14185	-979.27319	-495.80206	1438.11108	-996.58533	-481.24139	1107.00354	-979.69702	-610.34790	1367.94885	-984.17505	-660.93457	1197.01489	-1065.42737	-432.57352	1266.98718	-817.73969	-549.02527	1390.28589	-753.37354	-519.13007	1189.67505	-747.50037	-493.69260	1079.59351	-724.91473	-491.77838	929.74445	-759.81219	-538.87976	806.70929	-732.08252	-474.03278	811.37659	-728.40283	-499.22321	724.25812	-1139.94836	-562.36151	1404.35815	-1238.10571	-536.15918	1209.93896	-1252.28967	-557.06873	1090.65979	-1261.83728	-615.74756	987.18585	-1212.60547	-724.71979	891.29010	-1256.78125	-680.75940	867.15698	-1250.36426	-746.90088	815.99866	-899.99634	-675.65869	965.71741	-1116.18994	-655.54144	961.32367	-912.92072	-515.54089	979.79810	-1080.01184	-507.63123	975.69977	-834.92395	-657.44989	647.47528	-863.68359	-684.68079	487.50104	-881.59155	-676.65289	229.98636	-931.53778	-689.64551	62.05898	-979.63403	-652.42853	49.22195	-931.57916	-835.13440	35.62295	-1169.60266	-605.05255	614.38184	-1157.54907	-611.70215	486.87488	-1142.12036	-419.23624	313.84613	-1094.98145	-275.71606	199.03935	-1049.54822	-239.48393	220.31003	-1078.79285	-320.50381	48.65933	-966.65027	-527.64874	1693.40295																					 
